<?xml version="1.0" encoding="UTF-8"?>
<svg width="128px" height="128px" viewBox="0 0 128 128" version="1.1" xmlns="http://www.w3.org/2000/svg" xmlns:xlink="http://www.w3.org/1999/xlink">
    <!-- Generator: Sketch 51.3 (57544) - http://www.bohemiancoding.com/sketch -->
    <title>Artboard</title>
    <desc>Created with Sketch.</desc>
    <defs></defs>
    <g id="Artboard" stroke="none" stroke-width="1" fill="none" fill-rule="evenodd">
        <g id="acs-logo-mark" transform="translate(9.316456, 24.000000)" fill="#8F929F" fill-rule="nonzero">
            <polygon id="Shape" points="49.7314801 20.5593118 33.0543796 26.971389 33.0543796 0.468136493 49.7314801 6.23900599"></polygon>
            <path d="M18.109965,4.95659055 L18.109965,22.269199 L30.455351,26.971389 L30.455351,0.681872399 L18.109965,4.95659055 Z M19.4094793,20.9867836 L18.7597222,20.7730477 L18.7597222,6.4527419 L19.4094793,6.23900599 L20.0592365,6.02527009 L20.7089937,5.81153418 L20.7089937,21.4142554 L20.0592365,21.2005195 L19.4094793,20.9867836 Z M22.6582651,21.8417273 L21.7919222,21.6279913 L21.7919222,5.59779827 L22.6582651,5.38406236 L23.524608,5.17032645 L24.3909509,4.95659055 L24.3909509,22.482935 L23.524608,22.269199 L22.6582651,21.8417273 Z M26.556808,23.1241427 L25.4738795,22.6966708 L25.4738795,4.52911873 L26.556808,4.31538282 L27.6397366,3.88791101 L28.939251,3.4604392 L28.939251,23.7653504 L27.6397366,23.3378786 L26.556808,23.1241427 Z" id="Shape"></path>
            <polygon id="Shape" points="88.5003241 20.5593118 71.8232236 26.971389 71.8232236 0.468136493 88.5003241 6.23900599"></polygon>
            <path d="M56.8788088,4.95659055 L56.8788088,22.269199 L69.2241947,26.971389 L69.2241947,0.681872399 L56.8788088,4.95659055 Z M58.1783231,20.9867836 L57.5285659,20.7730477 L57.5285659,6.4527419 L58.1783231,6.23900599 L58.8280803,6.02527009 L59.4778374,5.81153418 L59.4778374,21.4142554 L58.8280803,21.2005195 L58.1783231,20.9867836 Z M61.4271089,21.8417273 L60.560766,21.6279913 L60.560766,5.59779827 L61.4271089,5.38406236 L62.2934518,5.17032645 L63.1597949,4.95659055 L63.1597949,22.482935 L62.2934518,22.269199 L61.4271089,21.8417273 Z M65.3256518,23.1241427 L64.242723,22.6966708 L64.242723,4.52911873 L65.3256518,4.31538282 L66.4085805,3.88791101 L67.7080946,3.4604392 L67.7080946,23.7653504 L66.4085805,23.3378786 L65.3256518,23.1241427 Z" id="Shape"></path>
            <polygon id="Shape" points="49.7314801 73.1383452 33.0543796 79.5504222 33.0543796 53.0471697 49.7314801 58.8180392"></polygon>
            <path d="M18.109965,57.5356237 L18.109965,74.8482325 L30.455351,79.5504222 L30.455351,53.2609056 L18.109965,57.5356237 Z M19.4094793,73.5658167 L18.7597222,73.352081 L18.7597222,59.0317751 L19.4094793,58.8180392 L20.0592365,58.6043033 L20.7089937,58.3905674 L20.7089937,73.9932889 L20.0592365,73.7795525 L19.4094793,73.5658167 Z M22.6582651,74.4207604 L21.7919222,74.2070246 L21.7919222,58.1768315 L22.6582651,57.9630956 L23.524608,57.7493597 L24.3909509,57.5356237 L24.3909509,75.0619683 L23.524608,74.8482325 L22.6582651,74.4207604 Z M26.556808,75.7031762 L25.4738795,75.275704 L25.4738795,57.1081519 L26.556808,56.894416 L27.6397366,56.4669442 L28.939251,56.0394724 L28.939251,76.3443834 L27.6397366,75.9169119 L26.556808,75.7031762 Z" id="Shape"></path>
            <polygon id="Shape" points="88.5003241 73.1383452 71.8232236 79.5504222 71.8232236 53.0471697 88.5003241 58.8180392"></polygon>
            <path d="M56.8788088,57.5356237 L56.8788088,74.8482325 L69.2241947,79.5504222 L69.2241947,53.2609056 L56.8788088,57.5356237 Z M58.1783231,73.5658167 L57.5285659,73.352081 L57.5285659,59.0317751 L58.1783231,58.8180392 L58.8280803,58.6043033 L59.4778374,58.3905674 L59.4778374,73.9932889 L58.8280803,73.7795525 L58.1783231,73.5658167 Z M61.4271089,74.4207604 L60.560766,74.2070246 L60.560766,58.1768315 L61.4271089,57.9630956 L62.2934518,57.7493597 L63.1597949,57.5356237 L63.1597949,75.0619683 L62.2934518,74.8482325 L61.4271089,74.4207604 Z M65.3256518,75.7031762 L64.242723,75.275704 L64.242723,57.1081519 L65.3256518,56.894416 L66.4085805,56.4669442 L67.7080946,56.0394724 L67.7080946,76.3443834 L66.4085805,75.9169119 L65.3256518,75.7031762 Z" id="Shape"></path>
            <polygon id="Shape" points="70.3071235 46.8488284 53.8466087 53.0471697 53.8466087 26.7576531 70.3071235 32.5285226"></polygon>
            <path d="M38.6856083,31.0323712 L38.6856083,48.3449798 L51.0309944,53.0471697 L51.0309944,26.7576531 L38.6856083,31.0323712 Z M39.9851227,47.0625643 L39.3353655,46.8488284 L39.3353655,32.5285226 L39.9851227,32.3147867 L40.6348798,32.1010508 L41.284637,31.8873149 L41.284637,47.4900361 L40.6348798,47.2763002 L39.9851227,47.0625643 Z M43.2339085,48.1312438 L42.3675656,47.9175079 L42.3675656,31.8873149 L43.2339085,31.6735789 L44.1002513,31.4598431 L44.9665942,31.2461072 L44.9665942,48.7724516 L44.1002513,48.5587156 L43.2339085,48.1312438 Z M47.1324514,49.4136593 L46.0495228,48.9861875 L46.0495228,30.8186354 L47.1324514,30.6048994 L48.21538,30.1774276 L49.5148943,29.7499558 L49.5148943,50.054867 L48.21538,49.6273952 L47.1324514,49.4136593 Z" id="Shape"></path>
            <polygon id="Shape" points="31.7548653 46.8488284 15.2943507 53.0471697 15.2943507 26.7576531 31.7548653 32.5285226"></polygon>
            <path d="M0.133350283,31.0323712 L0.133350283,48.3449798 L12.4787363,53.0471697 L12.4787363,26.7576531 L0.133350283,31.0323712 Z M1.4328646,47.0625643 L0.783107444,46.8488284 L0.783107444,32.5285226 L1.4328646,32.3147867 L2.08262176,32.1010508 L2.73237892,31.8873149 L2.73237892,47.4900361 L2.08262176,47.2763002 L1.4328646,47.0625643 Z M4.68165039,48.1312438 L3.81530751,47.9175079 L3.81530751,31.8873149 L4.68165039,31.6735789 L5.54799327,31.4598431 L6.41433615,31.2461072 L6.41433615,48.7724516 L5.54799327,48.5587156 L4.68165039,48.1312438 Z M8.58019337,49.4136593 L7.49726476,48.9861875 L7.49726476,30.8186354 L8.58019337,30.6048994 L9.66312192,30.1774276 L10.9626363,29.7499558 L10.9626363,50.054867 L9.66312192,49.6273952 L8.58019337,49.4136593 Z" id="Shape"></path>
            <polygon id="Shape" points="108.42621 46.8488284 91.9656951 53.0471697 91.9656951 26.7576531 108.42621 32.5285226"></polygon>
            <polygon id="Shape" opacity="0.0800000057" points="49.7314801 20.5593118 33.0543796 26.971389 33.0543796 0.468136493 49.7314801 6.23900599"></polygon>
            <polygon id="Shape" opacity="0.0800000057" points="88.5003241 20.5593118 71.8232236 26.971389 71.8232236 0.468136493 88.5003241 6.23900599"></polygon>
            <polygon id="Shape" opacity="0.0800000057" points="49.7314801 73.1383452 33.0543796 79.5504222 33.0543796 53.0471697 49.7314801 58.8180392"></polygon>
            <polygon id="Shape" opacity="0.0800000057" points="88.5003241 73.1383452 71.8232236 79.5504222 71.8232236 53.0471697 88.5003241 58.8180392"></polygon>
            <polygon id="Shape" opacity="0.0800000057" points="70.3071235 46.8488284 53.8466087 53.0471697 53.8466087 26.7576531 70.3071235 32.5285226"></polygon>
            <polygon id="Shape" opacity="0.0800000057" points="31.7548653 46.8488284 15.2943507 53.0471697 15.2943507 26.7576531 31.7548653 32.5285226"></polygon>
            <polygon id="Shape" opacity="0.0800000057" points="108.42621 46.8488284 91.9656951 53.0471697 91.9656951 26.7576531 108.42621 32.5285226"></polygon>
            <path d="M76.8046953,31.0323712 L76.8046953,48.3449798 L89.1500809,53.0471697 L89.1500809,26.7576531 L76.8046953,31.0323712 Z M78.1042094,47.0625643 L77.454452,46.8488284 L77.454452,32.5285226 L78.1042094,32.3147867 L78.7539667,32.1010508 L79.4037235,31.8873149 L79.4037235,47.4900361 L78.7539667,47.2763002 L78.1042094,47.0625643 Z M81.352995,48.1312438 L80.4866522,47.9175079 L80.4866522,31.8873149 L81.352995,31.6735789 L82.2193377,31.4598431 L83.0856811,31.2461072 L83.0856811,48.7724516 L82.2193377,48.5587156 L81.352995,48.1312438 Z M85.2515379,49.4136593 L84.1686092,48.9861875 L84.1686092,30.8186354 L85.2515379,30.6048994 L86.3344666,30.1774276 L87.6339808,29.7499558 L87.6339808,50.054867 L86.3344666,49.6273952 L85.2515379,49.4136593 Z" id="Shape"></path>
        </g>
    </g>
</svg>